#define maximize_width 11
#define maximize_height 11
static unsigned char maximize_bits[] = {
   0xff, 0x00, 0x81, 0x00, 0x81, 0x00, 0xf9, 0x07, 0x89, 0x04, 0x89, 0x04,
   0x89, 0x04, 0xff, 0x04, 0x08, 0x04, 0x08, 0x04, 0xf8, 0x07 };
